<svg xmlns="http://www.w3.org/2000/svg" xmlns:v="https://svgstorm.com"
viewBox = "0 0 423 219"
width="423"
height="219">
<g fill="None" fill-opacity="0.0" stroke="#05CBE8" stroke-opacity="1.00" stroke-width="0.3"><path d="
M 15.00 92.00 
C 31.71 90.44 50.46 94.10 66.97 91.97 C 83.47 89.84 79.00 65.19 79.00 52.00 C 79.00 38.81 83.44 14.13 67.00 12.00 C 50.56 9.87 31.67 13.60 15.00 12.00
C 15.00 38.67 15.00 65.33 15.00 92.00
M 59.00 28.00 
C 64.78 31.05 61.84 42.00 63.00 48.00 C 64.16 54.00 58.13 63.28 51.33 59.67 C 44.53 56.06 48.27 46.11 47.00 40.00 C 45.73 33.89 51.75 24.17 59.00 28.00 Z"/>
</g>
<g fill="None" fill-opacity="0.0" stroke="#05CBE8" stroke-opacity="1.00" stroke-width="0.3"><path d="
M 127.00 12.00 
C 116.33 12.00 105.67 12.00 95.00 12.00
C 93.17 33.26 97.43 45.87 95.00 68.00 C 92.57 90.13 107.25 92.00 127.00 92.00 C 146.75 92.00 161.48 90.09 159.00 68.00 C 156.52 45.91 160.86 33.23 159.00 12.00
C 153.67 12.00 148.33 12.00 143.00 12.00
C 143.12 25.15 142.84 36.69 143.00 50.00 C 143.16 63.30 125.97 62.01 127.00 49.00 C 128.03 35.99 126.23 24.84 127.00 12.00 Z"/>
</g>
<g fill="None" fill-opacity="0.0" stroke="#05CBE8" stroke-opacity="1.00" stroke-width="0.3"><path d="
M 239.00 40.00 
C 243.00 25.30 234.54 9.92 220.00 12.00 C 205.46 14.08 187.54 7.22 178.71 17.71 C 169.87 28.19 177.41 46.75 175.00 60.00 C 172.59 73.25 175.23 92.83 190.00 92.00 C 204.77 91.17 222.15 95.76 233.30 88.30 C 244.45 80.83 236.63 60.46 239.00 48.00
C 233.67 48.00 228.33 48.00 223.00 48.00
C 226.23 57.56 212.18 64.31 208.97 56.03 C 205.76 47.76 205.23 39.09 209.10 31.10 C 212.97 23.10 226.34 31.70 223.00 40.00
C 228.33 40.00 233.67 40.00 239.00 40.00 Z"/>
</g>
<g fill="None" fill-opacity="0.0" stroke="#05CBE8" stroke-opacity="1.00" stroke-width="0.3"><path d="
M 287.00 12.00 
C 276.33 12.00 265.67 12.00 255.00 12.00
C 255.00 38.67 255.00 65.33 255.00 92.00
C 265.67 92.00 276.33 92.00 287.00 92.00
C 287.00 81.33 287.00 70.67 287.00 60.00
C 304.01 59.37 304.19 78.07 303.00 92.00
C 308.33 92.00 313.67 92.00 319.00 92.00
C 319.27 85.29 318.63 78.73 319.00 72.00 C 319.37 65.27 319.03 59.18 317.33 53.67 C 315.62 48.17 310.03 46.93 309.00 42.00
C 322.19 39.94 318.58 23.09 319.00 12.00
C 313.67 12.00 308.33 12.00 303.00 12.00
C 304.06 25.74 303.18 44.38 287.00 44.00
C 287.00 33.33 287.00 22.67 287.00 12.00 Z"/>
</g>
<g fill="None" fill-opacity="0.0" stroke="#C38D73" stroke-opacity="1.00" stroke-width="0.3"><path d="
M 399.00 108.00 
C 389.00 108.00 379.00 108.00 369.00 108.00 C 359.00 108.00 349.00 108.00 339.00 108.00 C 329.00 108.00 318.99 108.00 309.00 108.00 C 299.01 108.00 288.98 108.00 279.00 108.00 C 269.02 108.00 258.96 108.00 249.00 108.00 C 239.04 108.00 228.91 107.99 219.00 108.00 C 209.09 108.01 199.90 107.98 190.00 108.00 C 180.10 108.02 169.92 107.97 160.00 108.00 C 150.08 108.03 139.90 107.93 130.00 108.00 C 120.10 108.07 109.80 107.84 100.00 108.00 C 90.20 108.16 79.58 107.65 70.00 108.00 C 60.42 108.35 49.07 107.22 40.00 108.00 C 30.93 108.78 18.03 104.43 15.00 112.00
C 25.00 112.00 35.00 112.00 45.00 112.00 C 55.00 112.00 65.00 112.00 75.00 112.00 C 85.00 112.00 95.01 112.00 105.00 112.00 C 114.99 112.00 125.02 112.00 135.00 112.00 C 144.98 112.00 155.04 112.00 165.00 112.00 C 174.96 112.00 185.09 112.01 195.00 112.00 C 204.91 111.99 214.10 112.02 224.00 112.00 C 233.90 111.98 244.08 112.03 254.00 112.00 C 263.92 111.97 274.10 112.07 284.00 112.00 C 293.90 111.93 304.20 112.16 314.00 112.00 C 323.80 111.84 334.42 112.35 344.00 112.00 C 353.58 111.65 364.93 112.78 374.00 112.00 C 383.07 111.22 395.97 115.57 399.00 108.00 Z"/>
</g>
<g fill="None" fill-opacity="0.0" stroke="#05CBE8" stroke-opacity="1.00" stroke-width="0.3"><path d="
M 127.00 124.00 
C 116.33 124.00 105.67 124.00 95.00 124.00
C 95.00 150.67 95.00 177.33 95.00 204.00
C 105.67 204.00 116.33 204.00 127.00 204.00
C 127.00 193.33 127.00 182.67 127.00 172.00
C 132.33 172.00 137.67 172.00 143.00 172.00
C 143.00 182.67 143.00 193.33 143.00 204.00
C 148.33 204.00 153.67 204.00 159.00 204.00
C 159.00 177.33 159.00 150.67 159.00 124.00
C 153.67 124.00 148.33 124.00 143.00 124.00
C 143.00 132.00 143.00 140.00 143.00 148.00
C 137.67 148.00 132.33 148.00 127.00 148.00
C 127.00 140.00 127.00 132.00 127.00 124.00 Z"/>
</g>
<g fill="None" fill-opacity="0.0" stroke="#05CBE8" stroke-opacity="1.00" stroke-width="0.3"><path d="
M 207.00 124.00 
C 196.33 124.00 185.67 124.00 175.00 124.00
C 173.17 145.26 177.43 157.87 175.00 180.00 C 172.57 202.13 187.25 204.00 207.00 204.00 C 226.75 204.00 241.48 202.09 239.00 180.00 C 236.52 157.91 240.86 145.23 239.00 124.00
C 233.67 124.00 228.33 124.00 223.00 124.00
C 223.12 137.15 222.84 148.69 223.00 162.00 C 223.16 175.30 205.97 174.01 207.00 161.00 C 208.03 147.99 206.23 136.84 207.00 124.00 Z"/>
</g>
<g fill="None" fill-opacity="0.0" stroke="#05CBE8" stroke-opacity="1.00" stroke-width="0.3"><path d="
M 287.00 124.00 
C 276.33 124.00 265.67 124.00 255.00 124.00
C 255.00 150.67 255.00 177.33 255.00 204.00
C 265.67 204.00 276.33 204.00 287.00 204.00
C 287.00 193.33 287.00 182.67 287.00 172.00
C 304.01 171.37 304.19 190.07 303.00 204.00
C 308.33 204.00 313.67 204.00 319.00 204.00
C 319.00 177.33 319.00 150.67 319.00 124.00
C 313.67 124.00 308.33 124.00 303.00 124.00
C 301.74 132.18 305.57 144.24 301.00 150.00
C 300.64 143.19 293.27 139.83 287.00 140.00
C 287.00 134.67 287.00 129.33 287.00 124.00 Z"/>
</g>
<g fill="None" fill-opacity="0.0" stroke="#05CBE8" stroke-opacity="1.00" stroke-width="0.3"><path d="
M 399.00 124.00 
C 377.67 124.00 356.33 124.00 335.00 124.00
C 335.00 129.33 335.00 134.67 335.00 140.00
C 340.33 140.00 345.67 140.00 351.00 140.00
C 351.00 161.33 351.00 182.67 351.00 204.00
C 361.67 204.00 372.33 204.00 383.00 204.00
C 383.00 182.67 383.00 161.33 383.00 140.00
C 388.33 140.00 393.67 140.00 399.00 140.00
C 399.00 134.67 399.00 129.33 399.00 124.00 Z"/>
</g>
<g fill="#05CBE8" fill-opacity="1.00" stroke="None">
<path d="
M 15.00 92.00 
C 31.71 90.44 50.46 94.10 66.97 91.97 C 83.47 89.84 79.00 65.19 79.00 52.00 C 79.00 38.81 83.44 14.13 67.00 12.00 C 50.56 9.87 31.67 13.60 15.00 12.00
C 15.00 38.67 15.00 65.33 15.00 92.00
M 59.00 28.00 
C 64.78 31.05 61.84 42.00 63.00 48.00 C 64.16 54.00 58.13 63.28 51.33 59.67 C 44.53 56.06 48.27 46.11 47.00 40.00 C 45.73 33.89 51.75 24.17 59.00 28.00 Z"/>
</g>
<g fill="#05CBE8" fill-opacity="1.00" stroke="None">
<path d="
M 127.00 12.00 
C 116.33 12.00 105.67 12.00 95.00 12.00
C 93.17 33.26 97.43 45.87 95.00 68.00 C 92.57 90.13 107.25 92.00 127.00 92.00 C 146.75 92.00 161.48 90.09 159.00 68.00 C 156.52 45.91 160.86 33.23 159.00 12.00
C 153.67 12.00 148.33 12.00 143.00 12.00
C 143.12 25.15 142.84 36.69 143.00 50.00 C 143.16 63.30 125.97 62.01 127.00 49.00 C 128.03 35.99 126.23 24.84 127.00 12.00 Z"/>
</g>
<g fill="#05CBE8" fill-opacity="1.00" stroke="None">
<path d="
M 239.00 40.00 
C 243.00 25.30 234.54 9.92 220.00 12.00 C 205.46 14.08 187.54 7.22 178.71 17.71 C 169.87 28.19 177.41 46.75 175.00 60.00 C 172.59 73.25 175.23 92.83 190.00 92.00 C 204.77 91.17 222.15 95.76 233.30 88.30 C 244.45 80.83 236.63 60.46 239.00 48.00
C 233.67 48.00 228.33 48.00 223.00 48.00
C 226.23 57.56 212.18 64.31 208.97 56.03 C 205.76 47.76 205.23 39.09 209.10 31.10 C 212.97 23.10 226.34 31.70 223.00 40.00
C 228.33 40.00 233.67 40.00 239.00 40.00 Z"/>
</g>
<g fill="#05CBE8" fill-opacity="1.00" stroke="None">
<path d="
M 287.00 12.00 
C 276.33 12.00 265.67 12.00 255.00 12.00
C 255.00 38.67 255.00 65.33 255.00 92.00
C 265.67 92.00 276.33 92.00 287.00 92.00
C 287.00 81.33 287.00 70.67 287.00 60.00
C 304.01 59.37 304.19 78.07 303.00 92.00
C 308.33 92.00 313.67 92.00 319.00 92.00
C 319.27 85.29 318.63 78.73 319.00 72.00 C 319.37 65.27 319.03 59.18 317.33 53.67 C 315.62 48.17 310.03 46.93 309.00 42.00
C 322.19 39.94 318.58 23.09 319.00 12.00
C 313.67 12.00 308.33 12.00 303.00 12.00
C 304.06 25.74 303.18 44.38 287.00 44.00
C 287.00 33.33 287.00 22.67 287.00 12.00 Z"/>
</g>
<g fill="#C38D73" fill-opacity="1.00" stroke="None">
<path d="
M 399.00 108.00 
C 389.00 108.00 379.00 108.00 369.00 108.00 C 359.00 108.00 349.00 108.00 339.00 108.00 C 329.00 108.00 318.99 108.00 309.00 108.00 C 299.01 108.00 288.98 108.00 279.00 108.00 C 269.02 108.00 258.96 108.00 249.00 108.00 C 239.04 108.00 228.91 107.99 219.00 108.00 C 209.09 108.01 199.90 107.98 190.00 108.00 C 180.10 108.02 169.92 107.97 160.00 108.00 C 150.08 108.03 139.90 107.93 130.00 108.00 C 120.10 108.07 109.80 107.84 100.00 108.00 C 90.20 108.16 79.58 107.65 70.00 108.00 C 60.42 108.35 49.07 107.22 40.00 108.00 C 30.93 108.78 18.03 104.43 15.00 112.00
C 25.00 112.00 35.00 112.00 45.00 112.00 C 55.00 112.00 65.00 112.00 75.00 112.00 C 85.00 112.00 95.01 112.00 105.00 112.00 C 114.99 112.00 125.02 112.00 135.00 112.00 C 144.98 112.00 155.04 112.00 165.00 112.00 C 174.96 112.00 185.09 112.01 195.00 112.00 C 204.91 111.99 214.10 112.02 224.00 112.00 C 233.90 111.98 244.08 112.03 254.00 112.00 C 263.92 111.97 274.10 112.07 284.00 112.00 C 293.90 111.93 304.20 112.16 314.00 112.00 C 323.80 111.84 334.42 112.35 344.00 112.00 C 353.58 111.65 364.93 112.78 374.00 112.00 C 383.07 111.22 395.97 115.57 399.00 108.00 Z"/>
</g>
<g fill="#05CBE8" fill-opacity="1.00" stroke="None">
<path d="
M 127.00 124.00 
C 116.33 124.00 105.67 124.00 95.00 124.00
C 95.00 150.67 95.00 177.33 95.00 204.00
C 105.67 204.00 116.33 204.00 127.00 204.00
C 127.00 193.33 127.00 182.67 127.00 172.00
C 132.33 172.00 137.67 172.00 143.00 172.00
C 143.00 182.67 143.00 193.33 143.00 204.00
C 148.33 204.00 153.67 204.00 159.00 204.00
C 159.00 177.33 159.00 150.67 159.00 124.00
C 153.67 124.00 148.33 124.00 143.00 124.00
C 143.00 132.00 143.00 140.00 143.00 148.00
C 137.67 148.00 132.33 148.00 127.00 148.00
C 127.00 140.00 127.00 132.00 127.00 124.00 Z"/>
</g>
<g fill="#05CBE8" fill-opacity="1.00" stroke="None">
<path d="
M 207.00 124.00 
C 196.33 124.00 185.67 124.00 175.00 124.00
C 173.17 145.26 177.43 157.87 175.00 180.00 C 172.57 202.13 187.25 204.00 207.00 204.00 C 226.75 204.00 241.48 202.09 239.00 180.00 C 236.52 157.91 240.86 145.23 239.00 124.00
C 233.67 124.00 228.33 124.00 223.00 124.00
C 223.12 137.15 222.84 148.69 223.00 162.00 C 223.16 175.30 205.97 174.01 207.00 161.00 C 208.03 147.99 206.23 136.84 207.00 124.00 Z"/>
</g>
<g fill="#05CBE8" fill-opacity="1.00" stroke="None">
<path d="
M 287.00 124.00 
C 276.33 124.00 265.67 124.00 255.00 124.00
C 255.00 150.67 255.00 177.33 255.00 204.00
C 265.67 204.00 276.33 204.00 287.00 204.00
C 287.00 193.33 287.00 182.67 287.00 172.00
C 304.01 171.37 304.19 190.07 303.00 204.00
C 308.33 204.00 313.67 204.00 319.00 204.00
C 319.00 177.33 319.00 150.67 319.00 124.00
C 313.67 124.00 308.33 124.00 303.00 124.00
C 301.74 132.18 305.57 144.24 301.00 150.00
C 300.64 143.19 293.27 139.83 287.00 140.00
C 287.00 134.67 287.00 129.33 287.00 124.00 Z"/>
</g>
<g fill="#05CBE8" fill-opacity="1.00" stroke="None">
<path d="
M 399.00 124.00 
C 377.67 124.00 356.33 124.00 335.00 124.00
C 335.00 129.33 335.00 134.67 335.00 140.00
C 340.33 140.00 345.67 140.00 351.00 140.00
C 351.00 161.33 351.00 182.67 351.00 204.00
C 361.67 204.00 372.33 204.00 383.00 204.00
C 383.00 182.67 383.00 161.33 383.00 140.00
C 388.33 140.00 393.67 140.00 399.00 140.00
C 399.00 134.67 399.00 129.33 399.00 124.00 Z"/>
</g>
</svg>